<mxfile host="app.diagrams.net" modified="2024-06-24T23:48:11.175Z" agent="Mozilla/5.0 (iPhone; CPU iPhone OS 17_5 like Mac OS X) AppleWebKit/605.1.15 (KHTML, like Gecko) CriOS/121.0.6167.138 Mobile/15E148 Safari/604.1" etag="rALOb60SWrII9GfJ4eKo" version="24.6.2" type="github">
  <diagram name="第 1 页" id="oRbieZPxxKd4XBJFWahl">
    <mxGraphModel dx="396" dy="1022" grid="0" gridSize="10" guides="1" tooltips="1" connect="1" arrows="1" fold="1" page="0" pageScale="1" pageWidth="827" pageHeight="1169" math="0" shadow="0">
      <root>
        <mxCell id="0" />
        <mxCell id="1" parent="0" />
        <mxCell id="jCL3Zi5yXvt7yF60Tiwd-1" value="诉变" style="ellipse;whiteSpace=wrap;html=1;" vertex="1" parent="1">
          <mxGeometry x="107" y="-76" width="80" height="80" as="geometry" />
        </mxCell>
        <mxCell id="jCL3Zi5yXvt7yF60Tiwd-2" value="满足" style="ellipse;whiteSpace=wrap;html=1;" vertex="1" parent="1">
          <mxGeometry x="107" y="25" width="80" height="80" as="geometry" />
        </mxCell>
        <mxCell id="jCL3Zi5yXvt7yF60Tiwd-3" value="数演" style="ellipse;whiteSpace=wrap;html=1;" vertex="1" parent="1">
          <mxGeometry x="213" y="25" width="80" height="80" as="geometry" />
        </mxCell>
        <mxCell id="jCL3Zi5yXvt7yF60Tiwd-4" value="支持" style="ellipse;whiteSpace=wrap;html=1;" vertex="1" parent="1">
          <mxGeometry x="107" y="126" width="80" height="80" as="geometry" />
        </mxCell>
        <mxCell id="jCL3Zi5yXvt7yF60Tiwd-5" value="规引" style="ellipse;whiteSpace=wrap;html=1;" vertex="1" parent="1">
          <mxGeometry x="213" y="126" width="80" height="80" as="geometry" />
        </mxCell>
        <mxCell id="jCL3Zi5yXvt7yF60Tiwd-6" value="滴代码" style="ellipse;whiteSpace=wrap;html=1;" vertex="1" parent="1">
          <mxGeometry x="316" y="25" width="80" height="80" as="geometry" />
        </mxCell>
        <mxCell id="jCL3Zi5yXvt7yF60Tiwd-7" value="功演" style="ellipse;whiteSpace=wrap;html=1;" vertex="1" parent="1">
          <mxGeometry x="213" y="230" width="80" height="80" as="geometry" />
        </mxCell>
        <mxCell id="jCL3Zi5yXvt7yF60Tiwd-8" value="此外" style="ellipse;whiteSpace=wrap;html=1;" vertex="1" parent="1">
          <mxGeometry x="107" y="235" width="80" height="80" as="geometry" />
        </mxCell>
        <mxCell id="jCL3Zi5yXvt7yF60Tiwd-9" value="支持" style="ellipse;whiteSpace=wrap;html=1;" vertex="1" parent="1">
          <mxGeometry x="107" y="341" width="80" height="80" as="geometry" />
        </mxCell>
        <mxCell id="jCL3Zi5yXvt7yF60Tiwd-10" value="工作流" style="ellipse;whiteSpace=wrap;html=1;" vertex="1" parent="1">
          <mxGeometry x="213" y="339" width="80" height="80" as="geometry" />
        </mxCell>
        <mxCell id="jCL3Zi5yXvt7yF60Tiwd-11" value="消演" style="ellipse;whiteSpace=wrap;html=1;" vertex="1" parent="1">
          <mxGeometry x="215" y="448" width="80" height="80" as="geometry" />
        </mxCell>
        <mxCell id="jCL3Zi5yXvt7yF60Tiwd-12" value="最后" style="ellipse;whiteSpace=wrap;html=1;" vertex="1" parent="1">
          <mxGeometry x="107" y="453" width="80" height="80" as="geometry" />
        </mxCell>
        <mxCell id="jCL3Zi5yXvt7yF60Tiwd-13" value="支持" style="ellipse;whiteSpace=wrap;html=1;" vertex="1" parent="1">
          <mxGeometry x="104" y="560" width="80" height="80" as="geometry" />
        </mxCell>
        <mxCell id="jCL3Zi5yXvt7yF60Tiwd-14" value="三诊" style="ellipse;whiteSpace=wrap;html=1;" vertex="1" parent="1">
          <mxGeometry x="213" y="555" width="80" height="80" as="geometry" />
        </mxCell>
        <mxCell id="jCL3Zi5yXvt7yF60Tiwd-15" value="推拉" style="ellipse;whiteSpace=wrap;html=1;" vertex="1" parent="1">
          <mxGeometry x="307" y="552" width="80" height="80" as="geometry" />
        </mxCell>
      </root>
    </mxGraphModel>
  </diagram>
</mxfile>
